<?xml version="1.0" encoding="UTF-8"?>
<svg version="1.1" xmlns="http://www.w3.org/2000/svg" width="48" height="48">
<path d="M0 0 C1.09570312 0.00902344 2.19140625 0.01804688 3.3203125 0.02734375 C4.16335937 0.03894531 5.00640625 0.05054687 5.875 0.0625 C5.875 1.0525 5.875 2.0425 5.875 3.0625 C2.245 3.0625 -1.385 3.0625 -5.125 3.0625 C-5.125 4.0525 -5.125 5.0425 -5.125 6.0625 C-3.5471875 6.18625 -3.5471875 6.18625 -1.9375 6.3125 C2.19056818 7.12457899 3.93330641 8.12080641 6.875 11.0625 C8.34333703 15.46751109 8.09993708 19.76028938 8.125 24.375 C8.145625 25.31279297 8.16625 26.25058594 8.1875 27.21679688 C8.21785339 32.60073002 7.9332838 36.42763076 4.875 41.0625 C0.25928236 45.55986591 -4.10159219 45.50397157 -10.22265625 45.49609375 C-13.60284219 44.99111308 -15.42171124 44.14581022 -18.125 42.0625 C-22.13803461 36.4726345 -21.6402056 31.21495131 -21.625 24.5625 C-21.65335938 23.43457031 -21.68171875 22.30664062 -21.7109375 21.14453125 C-21.73038683 12.92718896 -21.73038683 12.92718896 -18.86328125 8.83203125 C-16.2624176 7.15130196 -14.85696566 6.40480334 -11.8125 6.25 C-9.9871875 6.1571875 -9.9871875 6.1571875 -8.125 6.0625 C-8.125 4.4125 -8.125 2.7625 -8.125 1.0625 C-5.36047967 -0.31976016 -3.0788637 -0.03275387 0 0 Z " fill="#2B3537" transform="translate(31.125,0.9375)"/>
<path d="M0 0 C7.92 0 15.84 0 24 0 C24.66964286 13.125 24.66964286 13.125 21.6875 16.75 C17.93318654 19.89314615 14.92799285 20.35287559 10.06640625 20.28125 C6.6053914 19.8101856 4.57610372 18.26942471 2 16 C0 11 0 11 0 0 Z " fill="#A1A4B1" transform="translate(12,24)"/>
<path d="M0 0 C1.09570312 0.00902344 2.19140625 0.01804688 3.3203125 0.02734375 C4.16335937 0.03894531 5.00640625 0.05054687 5.875 0.0625 C5.875 1.0525 5.875 2.0425 5.875 3.0625 C2.245 3.0625 -1.385 3.0625 -5.125 3.0625 C-5.125 4.0525 -5.125 5.0425 -5.125 6.0625 C-3.805 6.0625 -2.485 6.0625 -1.125 6.0625 C-1.125 6.7225 -1.125 7.3825 -1.125 8.0625 C-2.775 8.0625 -4.425 8.0625 -6.125 8.0625 C-6.125 9.0525 -6.125 10.0425 -6.125 11.0625 C-5.465 11.0625 -4.805 11.0625 -4.125 11.0625 C-4.125 14.0325 -4.125 17.0025 -4.125 20.0625 C-4.785 19.7325 -5.445 19.4025 -6.125 19.0625 C-6.125 16.7525 -6.125 14.4425 -6.125 12.0625 C-6.785 12.0625 -7.445 12.0625 -8.125 12.0625 C-8.125 14.3725 -8.125 16.6825 -8.125 19.0625 C-8.455 19.0625 -8.785 19.0625 -9.125 19.0625 C-9.25 11.3125 -9.25 11.3125 -8.125 9.0625 C-10.043125 9.4646875 -10.043125 9.4646875 -12 9.875 C-12.71929687 10.02582031 -13.43859375 10.17664062 -14.1796875 10.33203125 C-16.49546549 10.98558838 -16.49546549 10.98558838 -18.125 14.0625 C-18.55468335 17.31854494 -18.44922759 20.59362141 -18.4375 23.875 C-18.45361328 24.76509766 -18.46972656 25.65519531 -18.48632812 26.57226562 C-18.49022338 31.82696631 -18.06583714 35.52086235 -15.125 40.0625 C-12.15076067 42.48595427 -8.84752085 42.42436865 -5.0859375 42.3125 C-1.10331676 41.80475552 1.09350898 39.98354298 3.625 37 C5.41798188 32.78649259 5.61938904 28.60179812 5.875 24.0625 C6.205 24.0625 6.535 24.0625 6.875 24.0625 C6.98353983 26.29058159 7.06083307 28.52019932 7.125 30.75 C7.17140625 31.99136719 7.2178125 33.23273437 7.265625 34.51171875 C6.80734844 38.67745269 5.85215845 40.17382354 2.875 43.0625 C-0.350935 45.28242616 -3.19765094 45.36037888 -7.0625 45.375 C-8.08214844 45.39175781 -9.10179687 45.40851562 -10.15234375 45.42578125 C-13.61614892 45.00247786 -15.37532266 44.19803621 -18.125 42.0625 C-22.13694627 36.4712479 -21.64020774 31.21588776 -21.625 24.5625 C-21.65335938 23.43457031 -21.68171875 22.30664062 -21.7109375 21.14453125 C-21.73038683 12.92718896 -21.73038683 12.92718896 -18.86328125 8.83203125 C-16.2624176 7.15130196 -14.85696566 6.40480334 -11.8125 6.25 C-9.9871875 6.1571875 -9.9871875 6.1571875 -8.125 6.0625 C-8.125 4.4125 -8.125 2.7625 -8.125 1.0625 C-5.36047967 -0.31976016 -3.0788637 -0.03275387 0 0 Z " fill="#22292F" transform="translate(31.125,0.9375)"/>
<path d="M0 0 C3.61305558 -0.33609819 5.62603831 -0.19511045 8.875 1.5 C11.20304318 4.23887433 11.30643811 4.83109612 11.3125 8.25 C11.209375 9.4875 11.10625 10.725 11 12 C7.37 12 3.74 12 0 12 C0.66 11.67 1.32 11.34 2 11 C2 8.03 2 5.06 2 2 C1.34 2 0.68 2 0 2 C0 1.34 0 0.68 0 0 Z " fill="#9699A7" transform="translate(25,10)"/>
<path d="M0 0 C0 0.66 0 1.32 0 2 C-0.66 2 -1.32 2 -2 2 C-2 4.97 -2 7.94 -2 11 C-1.34 11.33 -0.68 11.66 0 12 C-3.63 12 -7.26 12 -11 12 C-11.4247346 7.6677071 -11.47048413 5.65037512 -8.875 2.0625 C-5.56851204 -0.30954571 -3.9760803 -0.46233492 0 0 Z " fill="#A2A5B1" transform="translate(23,10)"/>
<path d="M0 0 C0.66 0 1.32 0 2 0 C2.86078544 12.89265303 2.86078544 12.89265303 -0.3125 16.75 C-3.67331705 19.5637073 -5.93977417 20.13213485 -10.1875 20.0625 C-12.0746875 20.0315625 -12.0746875 20.0315625 -14 20 C-14 19.67 -14 19.34 -14 19 C-13.39671875 18.84144531 -12.7934375 18.68289062 -12.171875 18.51953125 C-8.44884756 17.43264743 -5.55120362 16.44096289 -2.5 14 C-0.25115234 9.50230468 -0.17413769 4.97163113 0 0 Z " fill="#6C7283" transform="translate(34,24)"/>
<path d="M0 0 C1.32 0.33 2.64 0.66 4 1 C5.34772015 8.47372085 5.34772015 8.47372085 3.84375 10.75 C1.38063639 12.41990753 -0.23967671 12.30235026 -3.1875 12.1875 C-4.08855469 12.16042969 -4.98960938 12.13335937 -5.91796875 12.10546875 C-6.60503906 12.07066406 -7.29210938 12.03585938 -8 12 C-8.33 11.34 -8.66 10.68 -9 10 C-4.545 9.505 -4.545 9.505 0 9 C0 6.03 0 3.06 0 0 Z " fill="#2A364C" transform="translate(21,12)"/>
<path d="M0 0 C1.09570312 0.00902344 2.19140625 0.01804688 3.3203125 0.02734375 C4.16335937 0.03894531 5.00640625 0.05054687 5.875 0.0625 C5.875 1.0525 5.875 2.0425 5.875 3.0625 C2.245 3.0625 -1.385 3.0625 -5.125 3.0625 C-5.125 4.0525 -5.125 5.0425 -5.125 6.0625 C-3.805 6.3925 -2.485 6.7225 -1.125 7.0625 C-3.5 7.25 -3.5 7.25 -6.125 7.0625 C-8.125 4.0625 -8.125 4.0625 -8.125 1.0625 C-5.36047967 -0.31976016 -3.0788637 -0.03275387 0 0 Z " fill="#2B3E35" transform="translate(31.125,0.9375)"/>
<path d="M0 0 C0.33 0 0.66 0 1 0 C2.14500285 7.80363479 1.79773542 15.16992004 1 23 C-1 21 -1 21 -1.24291992 18.95288086 C-1.23881104 18.13182861 -1.23470215 17.31077637 -1.23046875 16.46484375 C-1.22853516 15.57345703 -1.22660156 14.68207031 -1.22460938 13.76367188 C-1.21236328 12.83103516 -1.20011719 11.89839844 -1.1875 10.9375 C-1.18685547 10.00099609 -1.18621094 9.06449219 -1.18554688 8.09960938 C-1.14019224 1.14019224 -1.14019224 1.14019224 0 0 Z " fill="#1B2028" transform="translate(11,14)"/>
<path d="M0 0 C0.99 0 1.98 0 3 0 C3.4125 0.94875 3.825 1.8975 4.25 2.875 C6.0040131 6.00716624 6.70851757 6.86500606 10 8 C10 8.99 10 9.98 10 11 C6.07417129 9.69139043 3.6012063 8.25150787 1 5 C0.25 2.25 0.25 2.25 0 0 Z " fill="#2D3838" transform="translate(10,35)"/>
<path d="M0 0 C0 0.99 0 1.98 0 3 C-4.34285714 7 -4.34285714 7 -7 7 C-4.60526316 0 -4.60526316 0 0 0 Z " fill="#2B3A36" transform="translate(17,8)"/>
<path d="M0 0 C2.125 0.375 2.125 0.375 4 1 C3.01 1.33 2.02 1.66 1 2 C-0.20882096 4.00016466 -0.20882096 4.00016466 -1 6 C-1.625 4.125 -1.625 4.125 -2 2 C-1.34 1.34 -0.68 0.68 0 0 Z " fill="#B3B6BF" transform="translate(15,11)"/>
</svg>
